<svg xmlns="http://www.w3.org/2000/svg" xmlns:xlink="http://www.w3.org/1999/xlink" width="1920" zoomAndPan="magnify" viewBox="0 0 1440 809.999993" height="1080" preserveAspectRatio="xMidYMid meet" version="1.0"><defs><g/></defs><rect x="-144" width="1728" fill="#ffffff" y="-80.999999" height="971.999992" fill-opacity="1"/><g fill="#131414" fill-opacity="1"><g transform="translate(608.999976, 432.672831)"><g><path d="M 6.703125 0 L 6.703125 -59.660156 L 20.105469 -59.660156 L 20.105469 0 Z M 18.46875 0 L 18.46875 -11.726562 L 43.4375 -11.726562 L 43.4375 0 Z M 18.46875 0 "/></g></g></g><g fill="#741a26" fill-opacity="1"><g transform="translate(654.609348, 432.672831)"><g><path d="M 26.4375 1.59375 C 22.625 1.59375 19.265625 0.941406 16.367188 -0.367188 C 13.464844 -1.675781 11.039062 -3.4375 9.09375 -5.648438 C 7.144531 -7.863281 5.667969 -10.34375 4.660156 -13.097656 C 3.652344 -15.847656 3.148438 -18.675781 3.148438 -21.574219 L 3.148438 -23.167969 C 3.148438 -26.167969 3.652344 -29.050781 4.660156 -31.824219 C 5.667969 -34.59375 7.132812 -37.066406 9.0625 -39.238281 C 10.988281 -41.410156 13.371094 -43.136719 16.210938 -44.417969 C 19.050781 -45.699219 22.296875 -46.339844 25.949219 -46.339844 C 30.769531 -46.339844 34.832031 -45.265625 38.136719 -43.121094 C 41.4375 -40.976562 43.953125 -38.164062 45.675781 -34.683594 C 47.398438 -31.203125 48.261719 -27.433594 48.261719 -23.375 L 48.261719 -18.941406 L 8.664062 -18.941406 L 8.664062 -26.417969 L 40.394531 -26.417969 L 36.082031 -22.925781 C 36.082031 -25.621094 35.703125 -27.917969 34.949219 -29.808594 C 34.191406 -31.703125 33.070312 -33.152344 31.578125 -34.160156 C 30.085938 -35.171875 28.210938 -35.675781 25.949219 -35.675781 C 23.699219 -35.675781 21.78125 -35.160156 20.1875 -34.132812 C 18.59375 -33.101562 17.382812 -31.597656 16.558594 -29.617188 C 15.734375 -27.632812 15.324219 -25.199219 15.324219 -22.3125 C 15.324219 -19.65625 15.714844 -17.332031 16.5 -15.34375 C 17.28125 -13.355469 18.492188 -11.8125 20.125 -10.714844 C 21.761719 -9.621094 23.863281 -9.070312 26.4375 -9.070312 C 28.851562 -9.070312 30.824219 -9.527344 32.363281 -10.441406 C 33.902344 -11.351562 34.933594 -12.511719 35.449219 -13.914062 L 47.464844 -13.914062 C 46.824219 -10.875 45.554688 -8.1875 43.652344 -5.84375 C 41.753906 -3.5 39.347656 -1.675781 36.441406 -0.367188 C 33.53125 0.941406 30.199219 1.59375 26.4375 1.59375 Z M 26.4375 1.59375 "/></g></g></g><g fill="#741a26" fill-opacity="1"><g transform="translate(705.606713, 432.672831)"><g><path d="M 26.4375 1.59375 C 22.625 1.59375 19.265625 0.941406 16.367188 -0.367188 C 13.464844 -1.675781 11.039062 -3.4375 9.09375 -5.648438 C 7.144531 -7.863281 5.667969 -10.34375 4.660156 -13.097656 C 3.652344 -15.847656 3.148438 -18.675781 3.148438 -21.574219 L 3.148438 -23.167969 C 3.148438 -26.167969 3.652344 -29.050781 4.660156 -31.824219 C 5.667969 -34.59375 7.132812 -37.066406 9.0625 -39.238281 C 10.988281 -41.410156 13.371094 -43.136719 16.210938 -44.417969 C 19.050781 -45.699219 22.296875 -46.339844 25.949219 -46.339844 C 30.769531 -46.339844 34.832031 -45.265625 38.136719 -43.121094 C 41.4375 -40.976562 43.953125 -38.164062 45.675781 -34.683594 C 47.398438 -31.203125 48.261719 -27.433594 48.261719 -23.375 L 48.261719 -18.941406 L 8.664062 -18.941406 L 8.664062 -26.417969 L 40.394531 -26.417969 L 36.082031 -22.925781 C 36.082031 -25.621094 35.703125 -27.917969 34.949219 -29.808594 C 34.191406 -31.703125 33.070312 -33.152344 31.578125 -34.160156 C 30.085938 -35.171875 28.210938 -35.675781 25.949219 -35.675781 C 23.699219 -35.675781 21.78125 -35.160156 20.1875 -34.132812 C 18.59375 -33.101562 17.382812 -31.597656 16.558594 -29.617188 C 15.734375 -27.632812 15.324219 -25.199219 15.324219 -22.3125 C 15.324219 -19.65625 15.714844 -17.332031 16.5 -15.34375 C 17.28125 -13.355469 18.492188 -11.8125 20.125 -10.714844 C 21.761719 -9.621094 23.863281 -9.070312 26.4375 -9.070312 C 28.851562 -9.070312 30.824219 -9.527344 32.363281 -10.441406 C 33.902344 -11.351562 34.933594 -12.511719 35.449219 -13.914062 L 47.464844 -13.914062 C 46.824219 -10.875 45.554688 -8.1875 43.652344 -5.84375 C 41.753906 -3.5 39.347656 -1.675781 36.441406 -0.367188 C 33.53125 0.941406 30.199219 1.59375 26.4375 1.59375 Z M 26.4375 1.59375 "/></g></g></g><g fill="#131414" fill-opacity="1"><g transform="translate(756.609343, 432.672831)"><g><path d="M 32.996094 0 L 32.996094 -13.199219 L 30.832031 -13.199219 L 30.832031 -27.582031 C 30.832031 -29.886719 30.28125 -31.605469 29.175781 -32.742188 C 28.074219 -33.878906 26.328125 -34.449219 23.945312 -34.449219 C 22.746094 -34.449219 21.167969 -34.421875 19.207031 -34.367188 C 17.246094 -34.3125 15.222656 -34.238281 13.136719 -34.140625 C 11.054688 -34.046875 9.167969 -33.945312 7.476562 -33.835938 L 7.476562 -44.867188 C 8.757812 -44.976562 10.238281 -45.082031 11.921875 -45.183594 C 13.605469 -45.289062 15.347656 -45.363281 17.152344 -45.410156 C 18.957031 -45.457031 20.636719 -45.480469 22.1875 -45.480469 C 26.78125 -45.480469 30.644531 -44.835938 33.785156 -43.550781 C 36.921875 -42.261719 39.308594 -40.296875 40.933594 -37.65625 C 42.5625 -35.011719 43.375 -31.609375 43.375 -27.441406 L 43.375 0 Z M 18.695312 1.144531 C 15.507812 1.144531 12.699219 0.574219 10.265625 -0.5625 C 7.835938 -1.699219 5.9375 -3.339844 4.578125 -5.484375 C 3.214844 -7.632812 2.535156 -10.203125 2.535156 -13.199219 C 2.535156 -16.507812 3.382812 -19.210938 5.078125 -21.300781 C 6.773438 -23.390625 9.140625 -24.9375 12.175781 -25.9375 C 15.214844 -26.9375 18.734375 -27.441406 22.742188 -27.441406 L 32.261719 -27.441406 L 32.261719 -20.207031 L 22.660156 -20.207031 C 20.355469 -20.207031 18.585938 -19.636719 17.347656 -18.5 C 16.105469 -17.363281 15.488281 -15.863281 15.488281 -13.996094 C 15.488281 -12.171875 16.105469 -10.695312 17.347656 -9.574219 C 18.585938 -8.449219 20.355469 -7.886719 22.660156 -7.886719 C 24.101562 -7.886719 25.414062 -8.144531 26.59375 -8.664062 C 27.769531 -9.179688 28.746094 -10.070312 29.515625 -11.328125 C 30.285156 -12.589844 30.722656 -14.328125 30.832031 -16.550781 L 33.9375 -13.320312 C 33.664062 -10.214844 32.914062 -7.59375 31.691406 -5.457031 C 30.464844 -3.316406 28.773438 -1.683594 26.621094 -0.550781 C 24.46875 0.578125 21.828125 1.144531 18.695312 1.144531 Z M 18.695312 1.144531 "/></g></g></g></svg>